<?xml version="1.0" encoding="UTF-8"?>
<svg id="Layer_1" data-name="Layer 1" xmlns="http://www.w3.org/2000/svg" viewBox="0 0 2000 2000">
  <defs>
    <style>
      .cls-1 {
        fill: #009383;
      }
    </style>
  </defs>
  <path class="cls-1" d="m1017.57,427.72c-320.51,0-472.13,55.15-472.13,55.15v713.39c0,237.79,475.58,485.93,475.58,485.93,0,0,472.15-282.61,472.15-485.93V482.87s-155.09-55.15-475.6-55.15Zm-402.17,598.47v-2.97h317.5v7.81h-317.5v-4.84Zm202.22-293.89c24.19,0,42.18-6.05,53.94-18.16,11.76-12.09,19.45-32.41,23.09-60.96h14v178.74h-14c-3.64-29.59-11.37-50.62-23.21-63.17-11.86-12.53-29.8-18.8-53.82-18.8h-3.64v87.96l-38.32-27.72v-24.54c0-.21-.04-.41-.12-.58-.23-.54-.77-.91-1.38-.91-.85,0-1.52.66-1.52,1.5v24.23h0s-44.55,32.25-44.55,32.25v6.65h-9.2l9.2-6.65v-222.39c0-15.73-2.93-26.16-8.81-31.25-5.88-5.11-18.51-8.27-37.88-9.48v-13.24h301.17v106.62h-12.97c-3.97-32-14.48-54.81-31.52-68.47-17.04-13.67-43.53-20.51-79.5-20.51h-17.39c-10.04,0-17.06,2.04-21.13,6.11-4.07,4.05-6.09,11.12-6.09,21.13v121.66h3.64Zm-69.05,237.52v35.88h-29.67v-139.55h110.52v139.55h-29.67v-35.88h-51.18Zm46.81,4.36v31.52h-19.03v-31.52h19.03Zm-23.42,0v31.52h-19.03v-31.52h19.03Zm-70.25-111.37l6.15-10.49h132.59l6.15,10.49h-144.89Zm112.27-14.05v-10.85l15,10.85h-15Zm19.37,63.69h50.8v93.25h-50.8v-93.25Zm.21-4.16v-19.26h49.54l18.49,19.26h-68.03Zm-118.79-19.26v19.26h-68.03l18.49-19.26h49.54Zm.21,23.42v93.25h-50.8v-93.25h50.8Zm203.84,98.12v7.83h-289.3v-7.83h289.3Zm159.27,272.49s-4.65-4.22-3.12-10.95c1.72-7.54,8.75-6.77,13.49-14.63,1.23,14.17-7.27,12.61-9.87,20.45-.85,2.6-.5,5.13-.5,5.13Zm-3.03,4.7c.1,2.49,2.26,6.5,4.7,7.23,0,0-1.16-3.86.31-8.25,5.49-16.48,21.13-16.48,17.06-39.56,10.97,5.98,20.92,17.33,18.35,30.65h.02c9.72-3.49,5.34-17.14,5.34-17.14,0,0,4.07,2.22,6.67,8.46,2.6,6.23.89,11.95,1.04,15.73.19,4.7,3.3,9.58,3.89,15.44.69,7.15-1.75,15.23-7.33,21.3h-44.4c-8.17-8.5-11.45-21.63-5.63-33.85Zm30.38,78.88c2.1-1.06,3.53-3.26,3.53-5.8,0-3.55-2.81-6.44-6.28-6.44s-6.3,2.89-6.3,6.44c0,2.53,1.45,4.74,3.55,5.8-.42,8.56.15,53.53.15,53.53h-1.77s-3.22-16.85-9.83-28.63c-6.59-11.78-12.11-15.06-12.11-15.06l9.83-36.9h32.98l9.54,35.84.27,1.06s-5.53,3.28-12.11,15.06c-6.07,10.83-9.27,25.93-9.75,28.3-.04.19-.06.33-.06.33h-1.79s.56-44.97.15-53.53Zm-23.31-41.47h41.14l-3.03,10.51h-35.05l-3.05-10.51Zm194.18,72.25c-19.05,16.56-44.8,24.83-77.21,24.83-17.74,0-38.13-4.07-61.11-12.26-6.79-2.49-11.8-3.08-14.98-1.77-3.18,1.31-5.69,4.88-7.5,10.7l-1.02,3.53h-3.93c.5-2.39,3.84-17.83,10.2-28.88,6.9-12.03,12.36-16.48,12.36-16.48,3.91,1.81,8,3.72,11.82,5.98,19.89,11.78,34.74,25.04,56.23,25.04,16.06,0,29.03-4.47,38.88-13.4,9.83-8.96,14.75-20.76,14.75-35.45,0-11.91-4.72-22.11-14.13-30.57-9.29-8.46-26.49-18.08-51.57-28.9-29.65-12.86-51.07-26.78-64.23-41.77-13.03-14.84-19.55-32.85-19.55-54.05,0-25.77,8.46-46.21,25.37-61.32,16.91-15.11,39.71-22.67,68.4-22.67,15.09-.12,32.62,3.68,52.59,11.43,8.04,3.2,13.98,4.2,17.87,3.01,3.89-1.16,7.06-4.95,9.56-11.32l1.45-3.74h12.28v92.51h-11.86c-6.5-23.98-17.18-43.05-32-57.27-14.84-14.21-31.48-21.32-49.89-21.32-14.15,0-25.56,3.78-34.2,11.32-8.66,7.56-13.01,17.58-13.01,30.05s4.51,22.11,13.53,30.57c8.87,8.31,25.29,17.6,49.27,27.84,32.02,13.73,55.08,28.2,69.21,43.45,14,15.11,21.01,33,21.01,53.65,0,28.26-9.54,50.68-28.59,67.24Zm153.51-371.21h-381.73V511.79c257.16,3.28,381.73,47.6,381.73,47.6v466.79Zm-820.99,151.16v-93.65h381.75v497.86c-95.06-54.32-381.75-232.39-381.75-404.21Z"/>
  <path class="cls-1" d="m1262.32,995.85c4.34-6.94,9.35-13.07,14.65-18.47,26.78-27.26,61.57-35.95,61.57-35.95v-136.29s0,0,0,0h0c-60.26,28.01-76.22,62.87-76.22,62.87v127.83s0,0,0,0h0Z"/>
  <polygon class="cls-1" points="1245.97 999.47 1246.66 999.89 1272.88 999.89 1273.57 999.47 1273.56 999.47 1273.56 999.47 1245.97 999.47 1245.97 999.47 1245.97 999.47"/>
  <path class="cls-1" d="m1056.86,999.47h189.11,0s0,0,0,0l-5.61-3.35c-.33-.19-34.24-20.03-89.47-23.02l-5.17-.29v-154.07l16.66,1.91v-15.92l13.13,4.88v-13.36l7.63,3.53c7.19,3.35,13.8,6.79,19.8,10.26v-170.47c0-18.35,3.24-30.59,9.72-36.72,6.48-6.11,20.38-9.89,41.72-11.32v-15.6h0s-197.52,0-197.52,0v15.6h0c21.34,1.44,35.26,5.15,41.74,11.18,2.42,2.26,4.39,5.4,5.91,9.42,2.53,6.7,3.79,15.85,3.79,27.44v296.24c0,18.58-3.24,30.86-9.7,36.86-6.48,6.03-20.4,9.77-41.74,11.18v15.6h0Z"/>
  <path class="cls-1" d="m1243,991.01s0,0,0,0c0,0,0,0,0,0-4.05-4.51-8.75-8.46-13.84-11.91h-.02c-6.32-4.32-13.17-7.83-20.05-10.72-23.64-9.91-47.18-12.26-47.19-12.26v-129.66h0s-10.74-1.23-10.74-1.23v142.02h0c56.48,3.08,90.78,23.13,91.84,23.75Z"/>
  <path class="cls-1" d="m1273.57,999.47h122.05l11.99-70.69,11.74-70.69h0,0s-17.74,0-17.74,0c-8.42,21.69-17.7,40.29-27.82,55.81v58.91l-5.17.29c-55.44,3.01-89.14,22.84-89.47,23.02l-5.57,3.35h0,0Z"/>
  <path class="cls-1" d="m677.59,991.18h23.81c.91,0,1.66-.85,1.66-1.91s-.75-1.93-1.66-1.93h-23.81c-.91,0-1.66.87-1.66,1.93s.75,1.91,1.66,1.91Z"/>
  <path class="cls-1" d="m700.51,935.26c0-6.09-4.92-11.01-11.01-11.01s-11.01,4.92-11.01,11.01v20.01h22.03v-20.01Z"/>
  <path class="cls-1" d="m677.59,970.9h23.81c.91,0,1.66-.87,1.66-1.93s-.75-1.93-1.66-1.93h-23.81c-.91,0-1.66.87-1.66,1.93s.75,1.93,1.66,1.93Z"/>
  <path class="cls-1" d="m677.59,981.04h23.81c.91,0,1.66-.85,1.66-1.91s-.75-1.95-1.66-1.95h-23.81c-.91,0-1.66.87-1.66,1.95s.75,1.91,1.66,1.91Z"/>
  <path class="cls-1" d="m869.77,935.26c0-6.09-4.92-11.01-11.03-11.01s-11.01,4.92-11.01,11.01v20.01h22.05v-20.01Z"/>
  <path class="cls-1" d="m870.65,987.33h-23.79c-.91,0-1.68.87-1.68,1.93s.77,1.91,1.68,1.91h23.79c.94,0,1.68-.85,1.68-1.91s-.75-1.93-1.68-1.93Z"/>
  <path class="cls-1" d="m870.65,967.03h-23.79c-.91,0-1.68.87-1.68,1.93s.77,1.93,1.68,1.93h23.79c.94,0,1.68-.87,1.68-1.93s-.75-1.93-1.68-1.93Z"/>
  <path class="cls-1" d="m870.65,977.17h-23.79c-.91,0-1.68.87-1.68,1.95s.77,1.91,1.68,1.91h23.79c.94,0,1.68-.85,1.68-1.91s-.75-1.95-1.68-1.95Z"/>
  <path class="cls-1" d="m753.52,878.58c-6.09,0-11.01,4.95-11.01,11.03v19.99h22.05v-19.99c0-6.09-4.95-11.03-11.03-11.03Z"/>
  <path class="cls-1" d="m805.82,931.92c0-6.09-4.92-11.03-11.01-11.03s-11.01,4.95-11.01,11.03v19.99h22.03v-19.99Z"/>
  <path class="cls-1" d="m753.52,920.88c-6.09,0-11.01,4.95-11.01,11.03v19.99h22.05v-19.99c0-6.09-4.95-11.03-11.03-11.03Z"/>
  <path class="cls-1" d="m805.82,889.61c0-6.09-4.92-11.03-11.01-11.03s-11.01,4.95-11.01,11.03v19.99h22.03v-19.99Z"/>
  <path class="cls-1" d="m866.24,1413.26s-29.13-125.3,6.3-160.7c12.59-14.48,28.03-24.85,46.29-31.06-17.16,1.68-33.27,6.23-48.41,13.71,1.54-27.91,12.38-53.09,32.46-75.55-34.97,29.51-55.54,60.67-61.73,93.44-6.17-32.77-26.74-63.94-61.73-93.44,20.11,22.46,30.92,47.65,32.48,75.55-15.15-7.48-31.25-12.03-48.41-13.71,18.26,6.21,33.7,16.58,46.29,31.06l-.5-.5c27.57,32.66,6.4,161.2,6.4,161.2,0,8.06-1.83,13.44-5.49,16.12-3.78,2.7-11.66,4.36-23.67,4.99v6.88h108.9v-6.88c-12.01-.62-19.89-2.29-23.58-4.99-3.74-2.68-5.59-8.06-5.59-16.12Z"/>
  <path class="cls-1" d="m826.84,1185.65c0,6.96,6.4,12.59,14.3,12.59s14.32-5.63,14.32-12.59-6.4-12.59-14.32-12.59-14.3,5.63-14.3,12.59Z"/>
  <path class="cls-1" d="m900.34,1194.08c-6.42,0-11.64,4.59-11.64,10.26s5.22,10.24,11.64,10.24,11.64-4.59,11.64-10.24-5.22-10.26-11.64-10.26Z"/>
  <path class="cls-1" d="m784.21,1217.02c6.44,0,11.64-4.59,11.64-10.26s-5.19-10.24-11.64-10.24-11.64,4.59-11.64,10.24,5.22,10.26,11.64,10.26Z"/>
  <path class="cls-1" d="m838.34,1152.3l1.06-14.77,1.27-17.25,2.1,17.23,1.81,14.88c22.13-17.89,20.86-38.21-3.84-61.03-24.12,22.42-24.91,42.74-2.39,60.94Z"/>
  <path class="cls-1" d="m885.11,1139.93l9.99-10.35-7.85,11.74-6.79,10.12c23.5-2.14,33.54-15.48,30.11-40.06-27.16,4.16-38.48,16.64-33.97,37.44l8.52-8.89Z"/>
  <path class="cls-1" d="m799.25,1157.47l-6.5-11.84-7.54-13.67,10.06,12.32,8.6,10.58c7.17-22.81-4.18-37.63-34.01-44.45-6.36,27.14,3.45,42.8,29.4,47.06Z"/>
  <path class="cls-1" d="m927.68,1160.09l9.23-7.13-7.71,8.44-6.67,7.27c18.76.71,28.38-8.77,28.9-28.47-21.9.52-32.46,9.2-31.63,25.99l7.88-6.11Z"/>
  <path class="cls-1" d="m929.8,1193.79l10.99-2.7,12.88-3.12-12.09,5.03-10.45,4.34c17.97,8.54,32.54,3.28,43.68-15.79-21.73-8.66-36.76-4.59-45.01,12.24Z"/>
  <path class="cls-1" d="m930.97,1220.72l10.93,1.43,12.78,1.7-12.92.25-11.2.21c12.09,13.8,27.3,14.19,45.69,1.21-15.36-15.21-30.44-16.81-45.28-4.8Z"/>
  <path class="cls-1" d="m906.72,1240.65l9.6,4.97,11.18,5.84-12.18-4.07-10.51-3.51c5.34,16.87,19.37,22.32,42.08,16.31-7.79-19.28-21.17-25.81-40.17-19.53Z"/>
  <path class="cls-1" d="m760.58,1171.91l-7.02-7.69-8.12-8.89,9.7,7.52,8.31,6.44c.85-17.72-10.26-26.87-33.35-27.41.54,20.78,10.7,30.77,30.48,30.03Z"/>
  <path class="cls-1" d="m753.77,1196.87l-10.49-4.34-12.13-4.97,12.9,3.08,11.05,2.68c-8.35-16.83-23.42-20.88-45.15-12.13,11.24,19.07,25.83,24.29,43.82,15.69Z"/>
  <path class="cls-1" d="m754.1,1223.38l-11.2-.23-12.97-.25,12.8-1.68,10.95-1.45c-14.86-12.01-29.96-10.41-45.32,4.8,18.39,13.03,33.62,12.61,45.73-1.18Z"/>
  <path class="cls-1" d="m756.7,1251.95l11.18-5.84,9.6-4.99c-18.99-6.25-32.39.27-40.17,19.55,22.71,5.98,36.72.56,42.1-16.33l-10.53,3.53-12.18,4.07Z"/>
  <polygon class="cls-1" points="798.75 787.61 798.75 804.11 809.41 804.11 805.5 795.86 809.41 787.61 798.75 787.61"/>
  <rect class="cls-1" x="777.37" y="784.64" width="19.53" height="16.5"/>
  <path class="cls-1" d="m1202.94,816.72c-6.57-3.91-13.88-7.81-21.98-11.57v136.29h0s9.43,2.35,22.27,8.48v.02s0,0,0,0h0c12.45,5.9,28.09,15.38,41.41,29.65,4.51,4.86,8.77,10.26,12.53,16.27v-127.83h0s-11.95-26.12-54.23-51.3Z"/>
  <path class="cls-1" d="m1167.84,812.94v137.45s0,0,0,0h0c14.63,2.25,27.51,6.32,37.46,10.22,12.65,4.97,20.59,9.7,21.42,10.2,0,0,0,0,0,0,0,0,0,0,0,0-6.05-5.03-14.25-9.68-22.36-13.61-14.9-7.19-29.44-11.9-29.44-11.91v-129.72h0s-7.09-2.64-7.09-2.64Z"/>
  <path class="cls-1" d="m1292.77,970.81s0,0,0,0c1.29-.77,19.45-11.59,45.71-17.85,4.2-1,8.6-1.87,13.17-2.58v-137.45h0s0,0,0,0l-7.09,2.64v129.72s-34.66,11.22-51.8,25.52c0,0,0,0,0,0Z"/>
  <path class="cls-1" d="m1316.06,966.16c-2.87,1.06-5.78,2.24-8.66,3.55-.08.02-.15.04-.23.08-11.3,5.09-22.38,11.97-30.67,21.21,0,0,0,0,0,0,0,0,0,0,0,0,1.06-.62,35.37-20.67,91.82-23.75v-142.02h0s-10.74,1.22-10.74,1.22v129.66s-19.89,1.97-41.47,10.02c0,0-.02,0-.04.02Z"/>
</svg>